<svg aria-hidden="true" style="position: absolute; width: 0; height: 0; overflow: hidden;" version="1.1" xmlns="http://www.w3.org/2000/svg" xmlns:xlink="http://www.w3.org/1999/xlink">
<defs>
<symbol id="icon-arrow-left" viewBox="0 0 64 64">
<path stroke-linejoin="round" stroke-linecap="round" stroke-miterlimit="4" stroke-width="4" d="M53.333 32h-42.667"></path>
<path stroke-linejoin="round" stroke-linecap="round" stroke-miterlimit="4" stroke-width="4" d="M26.667 48l-16-16 16-16"></path>
</symbol>
<symbol id="icon-brush" viewBox="0 0 64 64">
<path stroke-linejoin="round" stroke-linecap="round" stroke-miterlimit="4" stroke-width="5.3333" d="M34.074 40l-10.074-10.074"></path>
<path stroke-linejoin="round" stroke-linecap="round" stroke-miterlimit="4" stroke-width="5.3333" d="M5.333 58.667c5.333 0 12.288 0.911 15.933-2.734s3.645-9.554 0-13.199c-3.645-3.645-9.554-3.645-13.199 0s0 10.6-2.734 15.933z"></path>
<path stroke-linejoin="round" stroke-linecap="round" stroke-miterlimit="4" stroke-width="5.3333" d="M21.333 42.667c-1.31-1.31-1.966-1.966-2.336-2.652-0.888-1.646-0.85-3.636 0.101-5.246 0.397-0.671 1.076-1.301 2.436-2.56l26.315-24.366c2.318-2.146 5.917-2.077 8.151 0.157s2.303 5.833 0.157 8.151l-24.366 26.315c-1.259 1.36-1.889 2.040-2.56 2.436-1.61 0.951-3.601 0.989-5.246 0.101-0.686-0.37-1.341-1.026-2.652-2.336z"></path>
</symbol>
<symbol id="icon-hourglass" viewBox="0 0 64 64">
<path stroke-linejoin="round" stroke-linecap="round" stroke-miterlimit="4" stroke-width="5.3333" d="M48.434 5.333h-32.867c-1.233 0-2.233 1-2.233 2.233 0 7.107 2.823 13.924 7.849 18.949l3.251 3.251c0.323 0.323 0.484 0.484 0.6 0.639 0.705 0.946 0.705 2.242 0 3.188-0.116 0.155-0.277 0.317-0.6 0.639l-3.251 3.251c-5.026 5.026-7.849 11.842-7.849 18.949 0 1.233 1 2.233 2.233 2.233h32.867c1.233 0 2.233-1 2.233-2.233 0-7.107-2.823-13.924-7.849-18.949l-3.251-3.251c-0.323-0.323-0.484-0.484-0.6-0.639-0.705-0.946-0.705-2.242 0-3.188 0.115-0.155 0.277-0.317 0.6-0.639l3.251-3.251c5.026-5.026 7.849-11.842 7.849-18.949 0-1.233-1-2.233-2.233-2.233z"></path>
</symbol>
<symbol id="icon-arrow-up" viewBox="0 0 64 64">
<path stroke-linejoin="miter" stroke-linecap="butt" stroke-miterlimit="4" stroke-width="6.4" d="M48 40l-16-16-16 16"></path>
</symbol>
<symbol id="icon-arrow-down" viewBox="0 0 32 32">
  <path stroke-linejoin="miter" stroke-linecap="butt" stroke-miterlimit="4" stroke-width="6.4" d="M48 24l-16-16-16 16"></path>
</symbol>
<symbol id="icon-message-chat" viewBox="0 0 64 64">
<path stroke-linejoin="round" stroke-linecap="round" stroke-miterlimit="4" stroke-width="5.3333" d="M16.252 29.943c-0.166-1.068-0.252-2.162-0.252-3.277 0-11.782 9.614-21.333 21.474-21.333s21.474 9.551 21.474 21.333c0 2.662-0.49 5.209-1.387 7.559-0.186 0.488-0.279 0.732-0.322 0.922-0.042 0.189-0.058 0.322-0.063 0.515-0.005 0.195 0.022 0.41 0.075 0.839l1.073 8.721c0.116 0.944 0.174 1.416 0.017 1.759-0.138 0.301-0.382 0.539-0.686 0.67-0.347 0.149-0.817 0.080-1.758-0.058l-8.494-1.245c-0.444-0.065-0.665-0.098-0.867-0.096-0.2 0.001-0.338 0.016-0.534 0.057-0.198 0.042-0.45 0.136-0.955 0.325-2.355 0.882-4.908 1.365-7.574 1.365-1.115 0-2.21-0.085-3.28-0.247M20.351 58.667c7.906 0 14.316-6.566 14.316-14.667s-6.409-14.667-14.316-14.667c-7.906 0-14.316 6.566-14.316 14.667 0 1.628 0.259 3.194 0.737 4.658 0.202 0.619 0.303 0.928 0.336 1.139 0.035 0.221 0.041 0.345 0.028 0.567-0.012 0.214-0.066 0.455-0.173 0.938l-1.63 7.365 7.986-1.091c0.436-0.059 0.654-0.089 0.844-0.088 0.2 0.001 0.307 0.012 0.503 0.051 0.187 0.037 0.464 0.135 1.019 0.331 1.462 0.516 3.032 0.796 4.665 0.796z"></path>
</symbol>
<symbol id="icon-user" viewBox="0 0 64 64">
<path stroke-linejoin="round" stroke-linecap="round" stroke-miterlimit="4" stroke-width="5.3333" d="M53.333 56c0-3.722 0-5.582-0.459-7.096-1.034-3.409-3.702-6.077-7.111-7.111-1.514-0.459-3.375-0.459-7.096-0.459h-13.333c-3.721 0-5.582 0-7.096 0.459-3.409 1.034-6.077 3.702-7.111 7.111-0.459 1.514-0.459 3.375-0.459 7.096"></path>
<path stroke-linejoin="round" stroke-linecap="round" stroke-miterlimit="4" stroke-width="5.3333" d="M32 32c6.627 0 12-5.373 12-12s-5.373-12-12-12c-6.627 0-12 5.373-12 12s5.373 12 12 12z"></path>
</symbol>
<symbol id="menu" viewBox="0 0 32 32">
  <path stroke-linejoin="round" stroke-linecap="round" stroke-miterlimit="4" stroke-width="2.2857" d="M4 11.333h24M4 20.667h24"></path>
</symbol>
<symbol id="x" viewBox="0 0 32 32">
  <path stroke-linejoin="round" stroke-linecap="round" stroke-miterlimit="4" stroke-width="2.2857" d="M24 8l-16 16"></path>
  <path stroke-linejoin="round" stroke-linecap="round" stroke-miterlimit="4" stroke-width="2.2857" d="M8 8l16 16"></path>
</symbol>
</defs>
</svg>
